<?xml version="1.0" encoding="utf-8"?>
<!-- Generator: Adobe Illustrator 16.2.1, SVG Export Plug-In . SVG Version: 6.00 Build 0)  -->
<!DOCTYPE svg PUBLIC "-//W3C//DTD SVG 1.1//EN" "http://www.w3.org/Graphics/SVG/1.1/DTD/svg11.dtd">
<svg version="1.1" xmlns="http://www.w3.org/2000/svg" xmlns:xlink="http://www.w3.org/1999/xlink" x="0px" y="0px" width="1304px"
	 height="717.283px" viewBox="0 0 1304 717.283" enable-background="new 0 0 1304 717.283" xml:space="preserve">
<g id="Layer_2" display="none">
	<rect x="-870" y="-521.717" display="inline" fill="#7AC943" width="2907" height="1914"/>
</g>
<g id="Layer_1">
	<path fill="#FFFFFF" d="M144.208,82.406c-34.112,0-61.763,27.651-61.763,61.763c0,34.112,27.651,61.763,61.763,61.763
		c34.112,0,61.763-27.651,61.763-61.763C205.972,110.057,178.32,82.406,144.208,82.406z M144.213,164.756
		c-11.368,0-20.588-9.221-20.588-20.587c0-11.368,9.22-20.588,20.588-20.588c11.37,0,20.588,9.22,20.588,20.588
		C164.801,155.535,155.583,164.756,144.213,164.756z"/>
	<path fill="#FFFFFF" d="M437.53,184.916c22.505-25.636,19.966-64.657-5.669-87.162c-25.637-22.505-64.657-19.968-87.162,5.668
		c-22.505,25.636-19.967,64.658,5.67,87.162C376.004,213.089,415.025,210.552,437.53,184.916z M375.641,130.591
		c7.5-8.545,20.512-9.389,29.053-1.891c8.544,7.5,9.391,20.511,1.891,29.055c-7.501,8.544-20.512,9.39-29.055,1.89
		C368.987,152.146,368.14,139.135,375.641,130.591z"/>
	<path fill="#FFFFFF" d="M344.865,349.9c-22.609,25.544-20.229,64.575,5.314,87.184c25.543,22.609,64.575,20.231,87.184-5.312
		c22.609-25.544,20.23-64.575-5.314-87.184C406.506,321.979,367.474,324.356,344.865,349.9z M406.534,404.478
		c-7.536,8.514-20.551,9.305-29.062,1.771c-8.513-7.535-9.307-20.549-1.771-29.062c7.535-8.513,20.549-9.306,29.062-1.771
		C413.273,382.949,414.069,395.964,406.534,404.478z"/>
	<path fill="#FFFFFF" d="M144.208,329.072c-34.112,0-61.763,27.652-61.763,61.764c0,34.112,27.651,61.764,61.763,61.764
		c34.112,0,61.763-27.651,61.763-61.764C205.972,356.725,178.32,329.072,144.208,329.072z M144.213,411.424
		c-11.368,0-20.588-9.222-20.588-20.588c0-11.368,9.22-20.588,20.588-20.588c11.37,0,20.588,9.22,20.588,20.588
		C164.801,402.202,155.583,411.424,144.213,411.424z"/>
	<linearGradient id="SVGID_1_" gradientUnits="userSpaceOnUse" x1="35.3882" y1="485.3486" x2="251.1838" y2="297.7604">
		<stop  offset="0.4781" style="stop-color:#FFFFFF"/>
		<stop  offset="0.4961" style="stop-color:#F4F4F4"/>
		<stop  offset="0.6408" style="stop-color:#9E9E9E"/>
		<stop  offset="0.7685" style="stop-color:#5B5B5B"/>
		<stop  offset="0.8745" style="stop-color:#2A2A2A"/>
		<stop  offset="0.9548" style="stop-color:#0B0B0B"/>
		<stop  offset="1" style="stop-color:#000000"/>
	</linearGradient>
	<path fill="url(#SVGID_1_)" d="M267.344,316.643c-27.109,0-49.086-21.992-49.086-49.119c0-0.084,0.006-0.166,0.006-0.249
		c-21.661-13.045-47.029-20.553-74.151-20.553c-79.54,0-144.019,64.522-144.019,144.114c0,79.59,64.479,144.114,144.019,144.114
		c79.537,0,144.018-64.524,144.018-144.114c0-27.141-7.503-52.524-20.538-74.199C267.51,316.637,267.428,316.643,267.344,316.643z
		 M144.113,493.775c-56.815,0-102.87-46.086-102.87-102.939s46.055-102.938,102.87-102.938c56.811,0,102.871,46.085,102.871,102.938
		S200.923,493.775,144.113,493.775z"/>
	<linearGradient id="SVGID_2_" gradientUnits="userSpaceOnUse" x1="293.9771" y1="497.3076" x2="490.5507" y2="286.5082">
		<stop  offset="0.473" style="stop-color:#FFFFFF"/>
		<stop  offset="0.5743" style="stop-color:#BEBEBE"/>
		<stop  offset="0.6893" style="stop-color:#7B7B7B"/>
		<stop  offset="0.7936" style="stop-color:#464646"/>
		<stop  offset="0.8834" style="stop-color:#202020"/>
		<stop  offset="0.9552" style="stop-color:#090909"/>
		<stop  offset="1" style="stop-color:#000000"/>
	</linearGradient>
	<path fill="url(#SVGID_2_)" d="M486.631,282.921c-48.368-42.811-117.469-47.219-169.991-15.506c0,0.036,0.003,0.072,0.003,0.108
		c0,27.119-21.979,49.105-49.097,49.118c-35.146,58.384-24.81,135.321,28.052,182.109c59.599,52.75,150.679,47.201,203.432-12.399
		C551.779,426.755,546.228,335.672,486.631,282.921z M468.197,459.062c-37.682,42.571-102.736,46.536-145.309,8.855
		c-42.572-37.682-46.537-102.736-8.855-145.308c37.678-42.568,102.734-46.537,145.307-8.856
		C501.912,351.436,505.875,416.494,468.197,459.062z"/>
	<linearGradient id="SVGID_3_" gradientUnits="userSpaceOnUse" x1="477.8496" y1="29.0703" x2="304.8289" y2="258.6765">
		<stop  offset="0.473" style="stop-color:#FFFFFF"/>
		<stop  offset="0.5743" style="stop-color:#BEBEBE"/>
		<stop  offset="0.6893" style="stop-color:#7B7B7B"/>
		<stop  offset="0.7936" style="stop-color:#464646"/>
		<stop  offset="0.8834" style="stop-color:#202020"/>
		<stop  offset="0.9552" style="stop-color:#090909"/>
		<stop  offset="1" style="stop-color:#000000"/>
	</linearGradient>
	<path fill="url(#SVGID_3_)" d="M486.19,35.866c-59.812-52.507-150.87-46.587-203.379,13.228
		c-42.412,48.312-46.694,117.007-15.255,169.31c27.113,0.019,49.086,22.002,49.086,49.12c0,0.018-0.002,0.035-0.002,0.054
		c58.623,35.469,135.998,24.953,182.777-28.333C551.927,179.43,546.005,88.374,486.19,35.866z M468.474,212.08
		c-37.505,42.722-102.544,46.956-145.27,9.449c-42.726-37.508-46.953-102.548-9.449-145.271
		c37.508-42.725,102.546-46.956,145.271-9.449C501.751,104.317,505.981,169.355,468.474,212.08z"/>
	<circle fill="#FFFFFF" cx="267.617" cy="267.617" r="20.846"/>
	<path fill="#FFFFFF" d="M465.881,267.775c42.29-24.989,69.351-70.942,69.351-123.697c0-0.076-41.176-0.124-41.176-0.124
		c-0.104,56.759-45.438,102.328-102.227,102.328c-0.149,0-0.884,0-0.922,0c-55.447,0-100.453-43.454-102.641-98.372
		c0.036-1.317,0.057-2.526,0.057-3.852C288.322,64.468,223.798,0,144.208,0C64.616,0,0.094,64.55,0.094,144.142
		c0,79.59,64.522,144.128,144.114,144.128c2.224,0,4.432-0.062,6.631-0.162c53.767,3.41,96.167,48.093,96.167,102.725
		c0,0.149-0.005,0.302-0.006,0.451h41.125c0.001-0.149,0.006-0.298,0.006-0.447c0-27.144-7.307-52.523-20.354-74.2
		c-0.085,0.001-0.169,0.007-0.255,0.007c-27.127,0-49.119-21.992-49.119-49.119c0-27.129,21.992-49.121,49.119-49.121
		c27.117,0,49.102,21.973,49.12,49.087c21.683,13.119,47.075,20.794,74.28,20.794c0.038,0,0.078-0.003,0.078-0.003l0,0
		c0,0,0.04,0.003,0.116,0.003c56.849,0,102.978,46.132,102.978,102.984c0,0.149-0.016,1.016-0.016,1.016
		c-0.644,56.292-46.705,101.326-103.159,101.326c-0.149,0,0.081-0.005-0.919-0.006v41.176c1,0,0.77,0.006,0.919,0.006
		c79.526,0,144.243-64.001,144.347-143.502c0,0,0.003-0.268,0.003-0.191C535.15,338.642,507.814,292.922,465.881,267.775z
		 M247.064,148.128c-1.997,52.771-43.713,95.364-96.111,98.754c-2.229-0.103-4.47-0.161-6.725-0.161
		c-0.076,0-0.152,0.003-0.229,0.003l-0.125-0.002C87.118,246.609,41.27,200.952,41.27,144.169
		c0-56.853,46.085-102.938,102.938-102.938c56.552,0,102.323,45.4,102.8,101.844l-0.002,0.208c0,1-0.006,0.517-0.006,0.667
		C247,145.348,247.025,146.74,247.064,148.128z"/>
	<rect x="564" y="0.283" fill="#343434" width="740" height="162"/>
	<rect x="564" y="186.283" fill="#343434" width="475" height="162"/>
	<rect y="560.283" fill="#FFFFFF" width="1283" height="24"/>
	<rect y="693.283" fill="#FFFFFF" width="1283" height="24"/>
	<rect x="563" y="373.283" fill="#FFFFFF" width="304" height="161"/>
	<g>
		<path fill="#FFFFFF" d="M651.558,95.029c0,3.711-0.419,7.203-1.256,10.477c-0.838,3.274-2.291,6.13-4.365,8.567
			c-2.073,2.438-4.875,4.365-8.404,5.784c-3.529,1.418-7.985,2.127-13.367,2.127c-4.949,0-9.205-0.599-12.769-1.8
			c-3.566-1.201-6.513-2.601-8.839-4.201l5.674-13.205c2.109,1.238,4.366,2.329,6.766,3.273c2.4,0.947,5.02,1.418,7.857,1.418
			c4.147,0,7.129-1.019,8.949-3.056c1.818-2.036,2.729-5.456,2.729-10.258V44.829h17.024V95.029z"/>
		<path fill="#FFFFFF" d="M737.225,82.588c0,6.476-0.965,12.168-2.893,17.079c-1.928,4.911-4.567,9.022-7.912,12.332
			c-3.347,3.312-7.33,5.803-11.949,7.476c-4.622,1.673-9.587,2.509-14.897,2.509c-5.166,0-10.039-0.836-14.622-2.509
			c-4.585-1.672-8.586-4.163-12.005-7.476c-3.421-3.31-6.111-7.421-8.074-12.332c-1.965-4.911-2.948-10.604-2.948-17.079
			c0-6.474,1.019-12.168,3.056-17.079c2.035-4.911,4.783-9.039,8.239-12.386c3.455-3.346,7.458-5.856,12.005-7.53
			c4.546-1.673,9.331-2.51,14.35-2.51c5.166,0,10.041,0.837,14.624,2.51c4.583,1.674,8.584,4.184,12.005,7.53
			c3.419,3.347,6.11,7.476,8.075,12.386S737.225,76.114,737.225,82.588z M679.494,82.588c0,3.711,0.453,7.058,1.365,10.041
			c0.908,2.984,2.217,5.548,3.927,7.693c1.709,2.146,3.802,3.803,6.275,4.965c2.473,1.164,5.31,1.747,8.512,1.747
			c3.127,0,5.948-0.583,8.459-1.747c2.51-1.163,4.618-2.819,6.328-4.965c1.709-2.145,3.018-4.709,3.93-7.693
			c0.909-2.983,1.364-6.329,1.364-10.041c0-3.71-0.455-7.075-1.364-10.095c-0.912-3.018-2.221-5.601-3.93-7.748
			c-1.71-2.146-3.818-3.802-6.328-4.966c-2.511-1.163-5.332-1.746-8.459-1.746c-3.202,0-6.039,0.601-8.512,1.801
			c-2.474,1.2-4.566,2.875-6.275,5.02c-1.71,2.146-3.019,4.73-3.927,7.748C679.947,75.623,679.494,78.951,679.494,82.588z"/>
		<path fill="#FFFFFF" d="M820.708,82.588c0,6.476-0.965,12.168-2.892,17.079c-1.929,4.911-4.567,9.022-7.912,12.332
			c-3.348,3.312-7.33,5.803-11.95,7.476c-4.622,1.673-9.586,2.509-14.896,2.509c-5.167,0-10.039-0.836-14.622-2.509
			c-4.585-1.672-8.587-4.163-12.005-7.476c-3.422-3.31-6.112-7.421-8.075-12.332c-1.965-4.911-2.948-10.604-2.948-17.079
			c0-6.474,1.018-12.168,3.057-17.079c2.035-4.911,4.782-9.039,8.239-12.386c3.454-3.346,7.457-5.856,12.004-7.53
			c4.546-1.673,9.331-2.51,14.351-2.51c5.165,0,10.041,0.837,14.623,2.51c4.584,1.674,8.585,4.184,12.005,7.53
			c3.419,3.347,6.111,7.476,8.076,12.386C819.726,70.42,820.708,76.114,820.708,82.588z M762.979,82.588
			c0,3.711,0.452,7.058,1.363,10.041c0.909,2.984,2.219,5.548,3.929,7.693c1.708,2.146,3.802,3.803,6.275,4.965
			c2.472,1.164,5.31,1.747,8.512,1.747c3.127,0,5.948-0.583,8.458-1.747c2.51-1.163,4.619-2.819,6.328-4.965
			c1.709-2.145,3.019-4.709,3.931-7.693c0.908-2.983,1.363-6.329,1.363-10.041c0-3.71-0.455-7.075-1.363-10.095
			c-0.912-3.018-2.222-5.601-3.931-7.748c-1.709-2.146-3.818-3.802-6.328-4.966c-2.51-1.163-5.331-1.746-8.458-1.746
			c-3.202,0-6.04,0.601-8.512,1.801c-2.474,1.2-4.567,2.875-6.275,5.02c-1.71,2.146-3.02,4.73-3.929,7.748
			C763.431,75.623,762.979,78.951,762.979,82.588z"/>
		<path fill="#FFFFFF" d="M852.246,44.829c1.313,2.401,2.826,5.366,4.541,8.894c1.714,3.53,3.501,7.349,5.36,11.459
			c1.861,4.111,3.701,8.312,5.526,12.604c1.823,4.293,3.536,8.332,5.143,12.113c1.605-3.782,3.318-7.82,5.143-12.113
			c1.822-4.293,3.665-8.494,5.525-12.604c1.86-4.11,3.646-7.929,5.362-11.459c1.714-3.528,3.229-6.493,4.541-8.894h15.497
			c0.728,5.02,1.399,10.641,2.019,16.86c0.617,6.22,1.162,12.696,1.638,19.425c0.471,6.731,0.907,13.479,1.309,20.245
			c0.4,6.766,0.745,13.133,1.037,19.097h-16.588c-0.218-7.347-0.51-15.35-0.873-24.008c-0.364-8.658-0.91-17.388-1.636-26.191
			c-1.315,3.056-2.775,6.438-4.381,10.148c-1.606,3.71-3.193,7.421-4.763,11.131c-1.568,3.711-3.082,7.258-4.542,10.641
			c-1.458,3.384-2.701,6.275-3.722,8.676h-11.896c-1.023-2.4-2.263-5.292-3.721-8.676c-1.461-3.383-2.977-6.929-4.545-10.641
			c-1.569-3.709-3.157-7.42-4.76-11.131c-1.606-3.71-3.067-7.093-4.381-10.148c-0.727,8.803-1.272,17.533-1.636,26.191
			c-0.366,8.659-0.656,16.662-0.873,24.008h-16.588c0.29-5.964,0.636-12.331,1.037-19.097c0.398-6.766,0.835-13.514,1.309-20.245
			c0.472-6.729,1.019-13.205,1.637-19.425c0.618-6.22,1.292-11.84,2.02-16.86H852.246z"/>
		<path fill="#FFFFFF" d="M977.854,105.833v14.624h-50.526V44.829h17.022v61.003H977.854z"/>
		<path fill="#FFFFFF" d="M1040.156,120.456c-0.842-2.627-1.745-5.327-2.714-8.096c-0.969-2.77-1.934-5.528-2.894-8.273h-29.536
			c-0.956,2.759-1.914,5.523-2.872,8.295c-0.96,2.772-1.854,5.465-2.681,8.074h-17.679c2.845-8.146,5.544-15.677,8.1-22.59
			c2.554-6.911,5.053-13.422,7.497-19.534c2.445-6.112,4.854-11.912,7.226-17.407c2.372-5.492,4.836-10.857,7.39-16.096h16.138
			c2.484,5.239,4.933,10.604,7.347,16.096c2.41,5.495,4.842,11.295,7.291,17.407c2.448,6.112,4.951,12.624,7.509,19.534
			c2.558,6.913,5.264,14.443,8.114,22.59H1040.156z M1019.703,61.962c-0.38,1.098-0.936,2.593-1.666,4.483
			c-0.732,1.891-1.565,4.075-2.498,6.553c-0.936,2.478-1.981,5.206-3.136,8.185c-1.152,2.979-2.325,6.103-3.519,9.372h21.627
			c-1.159-3.28-2.278-6.414-3.362-9.401c-1.085-2.988-2.118-5.721-3.093-8.201c-0.977-2.477-1.832-4.66-2.569-6.549
			C1020.751,64.517,1020.156,63.036,1019.703,61.962z"/>
		<path fill="#FFFFFF" d="M1131.616,82.588c0,6.548-1.021,12.26-3.056,17.134c-2.037,4.875-4.93,8.914-8.675,12.113
			c-3.748,3.203-8.312,5.603-13.695,7.203c-5.387,1.6-11.424,2.401-18.118,2.401c-3.056,0-6.621-0.129-10.693-0.382
			c-4.075-0.257-8.077-0.781-12.004-1.583V45.812c3.927-0.727,8.02-1.218,12.276-1.474c4.256-0.254,7.911-0.382,10.968-0.382
			c6.475,0,12.349,0.729,17.623,2.183c5.276,1.456,9.804,3.748,13.588,6.875c3.782,3.129,6.693,7.131,8.73,12.004
			C1130.596,69.893,1131.616,75.75,1131.616,82.588z M1082.398,106.597c0.799,0.073,1.729,0.128,2.783,0.164
			c1.054,0.038,2.309,0.054,3.765,0.054c8.512,0,14.823-2.145,18.935-6.438c4.109-4.292,6.166-10.221,6.166-17.789
			c0-7.929-1.965-13.931-5.895-18.007c-3.927-4.073-10.148-6.11-18.66-6.11c-1.165,0-2.365,0.019-3.602,0.054
			c-1.238,0.037-2.4,0.127-3.492,0.272V106.597z"/>
		<path fill="#FFFFFF" d="M1191.083,120.456c-0.843-2.627-1.745-5.327-2.714-8.096c-0.97-2.77-1.933-5.528-2.894-8.273h-29.536
			c-0.956,2.759-1.914,5.523-2.873,8.295c-0.96,2.772-1.854,5.465-2.68,8.074h-17.679c2.845-8.146,5.544-15.677,8.1-22.59
			c2.554-6.911,5.052-13.422,7.497-19.534s4.854-11.912,7.225-17.407c2.373-5.492,4.837-10.857,7.391-16.096h16.138
			c2.484,5.239,4.933,10.604,7.347,16.096c2.41,5.495,4.842,11.295,7.291,17.407c2.448,6.112,4.951,12.624,7.51,19.534
			c2.557,6.913,5.262,14.443,8.112,22.59H1191.083z M1170.63,61.962c-0.38,1.098-0.936,2.593-1.666,4.483
			c-0.732,1.891-1.565,4.075-2.498,6.553c-0.936,2.478-1.981,5.206-3.136,8.185c-1.152,2.979-2.325,6.103-3.519,9.372h21.626
			c-1.158-3.28-2.277-6.414-3.361-9.401c-1.085-2.988-2.118-5.721-3.093-8.201c-0.977-2.477-1.832-4.66-2.569-6.549
			C1171.677,64.517,1171.082,63.036,1170.63,61.962z"/>
		<path fill="#FFFFFF" d="M1233.089,75.848c3.059-5.151,5.971-10.303,8.74-15.454c2.768-5.152,5.316-10.34,7.649-15.565h18.77
			c-4.146,8.149-8.439,16.042-12.877,23.681c-4.438,7.639-9.132,15.316-14.078,23.026v28.92h-17.023V91.755
			c-4.95-7.711-9.658-15.423-14.134-23.136c-4.474-7.711-8.783-15.641-12.931-23.79h19.752c2.324,5.225,4.831,10.413,7.521,15.565
			C1227.164,65.544,1230.036,70.697,1233.089,75.848z"/>
	</g>
	<g>
		<path fill="#FFFFFF" d="M643.717,238.437c-7.93,0-13.66,2.202-17.188,6.602c-3.529,4.403-5.293,10.422-5.293,18.062
			c0,3.71,0.437,7.076,1.311,10.094c0.873,3.02,2.182,5.621,3.928,7.803s3.93,3.875,6.549,5.074c2.617,1.2,5.674,1.801,9.167,1.801
			c1.892,0,3.509-0.037,4.856-0.109c1.346-0.073,2.525-0.219,3.545-0.438v-26.301h17.023v37.433
			c-2.036,0.802-5.309,1.655-9.819,2.563c-4.513,0.91-10.077,1.365-16.698,1.365c-5.674,0-10.822-0.874-15.441-2.619
			c-4.621-1.747-8.567-4.292-11.842-7.64c-3.273-3.345-5.802-7.457-7.583-12.332c-1.784-4.873-2.675-10.438-2.675-16.696
			c0-6.33,0.982-11.931,2.947-16.806c1.965-4.874,4.654-9.003,8.075-12.386c3.419-3.383,7.438-5.947,12.06-7.694
			c4.619-1.746,9.549-2.62,14.787-2.62c3.564,0,6.781,0.237,9.657,0.71c2.874,0.474,5.348,1.02,7.421,1.637
			c2.075,0.619,3.783,1.255,5.13,1.91c1.346,0.655,2.311,1.165,2.892,1.528l-4.91,13.642c-2.329-1.236-5.003-2.309-8.021-3.219
			C650.574,238.892,647.281,238.437,643.717,238.437z"/>
		<path fill="#FFFFFF" d="M702.866,224.468c11.349,0,20.042,2.019,26.082,6.057c6.039,4.038,9.058,10.312,9.058,18.825
			c0,5.312-1.219,9.622-3.655,12.932c-2.438,3.312-5.948,5.912-10.53,7.803c1.527,1.894,3.126,4.057,4.802,6.493
			c1.671,2.439,3.328,4.985,4.964,7.639c1.638,2.657,3.221,5.421,4.748,8.295c1.527,2.874,2.945,5.692,4.256,8.457h-19.031
			c-1.388-2.473-2.794-4.983-4.218-7.53c-1.424-2.546-2.885-5.02-4.382-7.42c-1.496-2.401-2.977-4.674-4.438-6.821
			c-1.461-2.146-2.921-4.092-4.383-5.839h-8.402v27.61h-17.022v-74.536c3.71-0.727,7.546-1.236,11.512-1.528
			C696.191,224.615,699.736,224.468,702.866,224.468z M703.848,238.982c-1.237,0-2.346,0.038-3.328,0.109
			c-0.982,0.073-1.909,0.146-2.783,0.218v20.517h4.803c6.4,0,10.984-0.8,13.75-2.401c2.764-1.6,4.146-4.328,4.146-8.185
			c0-3.71-1.401-6.347-4.2-7.912C713.433,239.766,709.305,238.982,703.848,238.982z"/>
		<path fill="#FFFFFF" d="M750.771,300.969v-75.627h51.074v14.296h-34.049v14.842h30.229v13.969h-30.229v18.225h36.558v14.296
			H750.771z"/>
		<path fill="#FFFFFF" d="M814.177,300.969v-75.627h51.073v14.296h-34.048v14.842h30.228v13.969h-30.228v18.225h36.557v14.296
			H814.177z"/>
		<path fill="#FFFFFF" d="M912.065,302.495c-12.296,0-21.662-3.417-28.101-10.257c-6.439-6.837-9.658-16.551-9.658-29.138
			c0-6.256,0.982-11.841,2.947-16.752c1.963-4.911,4.653-9.058,8.075-12.44c3.419-3.383,7.492-5.947,12.222-7.694
			c4.729-1.746,9.858-2.62,15.389-2.62c3.199,0,6.111,0.237,8.729,0.71c2.619,0.474,4.911,1.02,6.875,1.637
			c1.966,0.619,3.602,1.255,4.912,1.91c1.31,0.655,2.255,1.165,2.837,1.528l-4.912,13.75c-2.329-1.236-5.038-2.292-8.13-3.165
			c-3.093-0.873-6.602-1.31-10.53-1.31c-2.618,0-5.184,0.437-7.693,1.31s-4.73,2.274-6.658,4.202s-3.474,4.419-4.639,7.476
			c-1.163,3.055-1.744,6.766-1.744,11.131c0,3.492,0.381,6.749,1.145,9.767c0.764,3.02,2.001,5.621,3.711,7.803
			c1.708,2.183,3.945,3.912,6.711,5.184c2.765,1.273,6.113,1.91,10.04,1.91c2.473,0,4.693-0.145,6.657-0.437
			c1.966-0.29,3.711-0.637,5.239-1.037c1.527-0.399,2.873-0.854,4.037-1.364c1.164-0.508,2.219-0.982,3.166-1.418l4.69,13.642
			c-2.399,1.455-5.783,2.765-10.148,3.928S917.812,302.495,912.065,302.495z"/>
		<path fill="#FFFFFF" d="M945.569,300.969v-75.627h51.072v14.296h-34.048v14.842h30.229v13.969h-30.229v18.225h36.558v14.296
			H945.569z"/>
	</g>
	<g>
		<path fill="#FFFFFF" d="M201.889,669.283c-0.659-2.057-1.366-4.168-2.124-6.335s-1.513-4.325-2.264-6.474H174.39
			c-0.747,2.158-1.497,4.322-2.247,6.491c-0.751,2.169-1.451,4.276-2.098,6.317h-13.833c2.227-6.375,4.339-12.267,6.337-17.676
			c1.999-5.408,3.953-10.503,5.867-15.285c1.913-4.781,3.797-9.32,5.653-13.619c1.856-4.298,3.784-8.496,5.783-12.596h12.627
			c1.944,4.1,3.86,8.298,5.748,12.596c1.886,4.299,3.789,8.838,5.705,13.619c1.916,4.782,3.875,9.877,5.876,15.285
			c2.001,5.409,4.117,11.301,6.348,17.676H201.889z M185.885,623.514c-0.297,0.859-0.732,2.029-1.305,3.508
			c-0.572,1.48-1.224,3.189-1.955,5.128c-0.731,1.938-1.549,4.073-2.453,6.404c-0.903,2.331-1.821,4.774-2.753,7.333h16.922
			c-0.906-2.566-1.783-5.019-2.631-7.355c-0.849-2.338-1.656-4.477-2.419-6.416c-0.765-1.939-1.434-3.646-2.011-5.125
			C186.705,625.513,186.239,624.354,185.885,623.514z"/>
		<path fill="#FFFFFF" d="M275.843,639.652c0,5.068-0.755,9.521-2.263,13.364c-1.509,3.843-3.573,7.06-6.191,9.649
			c-2.619,2.59-5.736,4.54-9.35,5.849c-3.616,1.31-7.501,1.964-11.656,1.964c-4.042,0-7.856-0.654-11.442-1.964
			c-3.586-1.309-6.718-3.259-9.393-5.849c-2.677-2.59-4.782-5.807-6.319-9.649c-1.537-3.843-2.306-8.296-2.306-13.364
			c0-5.065,0.796-9.521,2.391-13.363c1.593-3.842,3.742-7.072,6.447-9.691c2.703-2.617,5.834-4.582,9.393-5.893
			c3.557-1.309,7.301-1.963,11.229-1.963c4.042,0,7.856,0.654,11.442,1.963c3.586,1.311,6.716,3.275,9.393,5.893
			c2.675,2.619,4.782,5.85,6.319,9.691C275.075,630.132,275.843,634.587,275.843,639.652z M230.672,639.652
			c0,2.904,0.355,5.523,1.067,7.856c0.711,2.335,1.736,4.341,3.074,6.021c1.337,1.68,2.974,2.975,4.91,3.885
			c1.935,0.911,4.155,1.366,6.66,1.366c2.447,0,4.654-0.455,6.618-1.366c1.964-0.91,3.614-2.205,4.953-3.885
			c1.337-1.68,2.362-3.686,3.074-6.021c0.711-2.333,1.067-4.952,1.067-7.856c0-2.902-0.356-5.535-1.067-7.898
			c-0.712-2.361-1.737-4.383-3.074-6.062c-1.338-1.678-2.989-2.974-4.953-3.885c-1.964-0.91-4.171-1.367-6.618-1.367
			c-2.505,0-4.726,0.471-6.66,1.41c-1.936,0.939-3.573,2.249-4.91,3.928c-1.338,1.68-2.363,3.701-3.074,6.062
			C231.027,634.203,230.672,636.807,230.672,639.652z M236.906,634.273h19.042v10.588h-19.042V634.273z"/>
		<path fill="#FFFFFF" d="M320.502,610.107h13.321v59.176h-13.321v-25.104h-22.373v25.104h-13.321v-59.176h13.321v22.629h22.373
			V610.107z"/>
		<path fill="#FFFFFF" d="M385.056,669.283c-3.814-6.773-7.941-13.463-12.382-20.066c-4.44-6.604-9.166-12.837-14.174-18.701v38.768
			h-13.15v-59.176h10.845c1.878,1.879,3.956,4.185,6.233,6.917c2.276,2.732,4.596,5.65,6.959,8.753
			c2.361,3.104,4.709,6.318,7.044,9.648c2.333,3.33,4.526,6.533,6.575,9.606v-34.925h13.235v59.176H385.056z"/>
		<path fill="#FFFFFF" d="M447.469,669.283c-0.659-2.057-1.366-4.168-2.124-6.335s-1.513-4.325-2.264-6.474H419.97
			c-0.747,2.158-1.497,4.322-2.247,6.491c-0.751,2.169-1.451,4.276-2.098,6.317h-13.833c2.227-6.375,4.339-12.267,6.337-17.676
			c1.999-5.408,3.953-10.503,5.867-15.285c1.913-4.781,3.797-9.32,5.653-13.619c1.856-4.298,3.784-8.496,5.783-12.596h12.627
			c1.944,4.1,3.86,8.298,5.748,12.596c1.886,4.299,3.789,8.838,5.705,13.619c1.916,4.782,3.875,9.877,5.876,15.285
			c2.001,5.409,4.117,11.301,6.348,17.676H447.469z M431.465,623.514c-0.297,0.859-0.732,2.029-1.305,3.508
			c-0.572,1.48-1.224,3.189-1.955,5.128c-0.731,1.938-1.549,4.073-2.453,6.404c-0.903,2.331-1.821,4.774-2.753,7.333h16.922
			c-0.906-2.566-1.783-5.019-2.631-7.355c-0.849-2.338-1.656-4.477-2.419-6.416c-0.765-1.939-1.434-3.646-2.011-5.125
			C432.285,625.513,431.819,624.354,431.465,623.514z"/>
		<path fill="#FFFFFF" d="M484.705,622.404c1.65-0.684,3.373-1.465,5.166-2.349c1.793-0.882,3.543-1.849,5.251-2.903
			c1.708-1.053,3.343-2.162,4.91-3.33c1.565-1.166,2.974-2.404,4.227-3.715h8.88v59.176h-12.723v-42.609
			c-1.708,1.139-3.616,2.178-5.721,3.117c-2.106,0.938-4.156,1.75-6.148,2.434L484.705,622.404z"/>
		<path fill="#FFFFFF" d="M555.834,651.863c0-1.65-0.371-3.116-1.11-4.397c-0.741-1.28-2.021-2.349-3.843-3.202
			c-1.822-0.854-4.27-1.508-7.343-1.964c-3.074-0.454-6.946-0.683-11.613-0.683c0.626-5.295,1.138-10.674,1.537-16.139
			c0.397-5.465,0.711-10.589,0.939-15.371h32.021v10.674h-21.347c-0.115,2.05-0.243,4.028-0.384,5.936
			c-0.143,1.907-0.299,3.572-0.47,4.994c8.311,0.57,14.444,2.52,18.401,5.85c3.956,3.33,5.935,7.956,5.935,13.876
			c0,2.732-0.484,5.267-1.452,7.601c-0.968,2.334-2.42,4.354-4.354,6.062c-1.936,1.707-4.37,3.045-7.301,4.013
			c-2.933,0.968-6.361,1.452-10.29,1.452c-1.537,0-3.146-0.101-4.824-0.299c-1.68-0.201-3.302-0.457-4.867-0.77
			c-1.566-0.312-2.976-0.64-4.227-0.981c-1.253-0.341-2.22-0.683-2.903-1.024l2.306-10.504c1.422,0.628,3.301,1.238,5.636,1.836
			c2.333,0.599,5.124,0.897,8.368,0.897c3.928,0,6.774-0.782,8.539-2.349C554.951,655.807,555.834,653.971,555.834,651.863z"/>
		<path fill="#FFFFFF" d="M592.807,653.586c0-2.161,0.312-4.137,0.937-5.93c0.625-1.791,1.461-3.412,2.512-4.863
			c1.05-1.449,2.271-2.729,3.663-3.84c1.39-1.107,2.853-2.089,4.386-2.943c-1.347-1.67-2.561-3.457-3.641-5.365
			c-1.082-1.906-1.623-3.999-1.623-6.276c0-5.009,1.508-8.866,4.525-11.57c3.017-2.703,7.173-4.056,12.467-4.056
			c2.675,0,5.009,0.355,7.002,1.066c1.992,0.713,3.657,1.68,4.995,2.905c1.337,1.225,2.348,2.648,3.031,4.271
			c0.683,1.623,1.025,3.373,1.025,5.252c0,3.475-0.983,6.562-2.949,9.268s-4.458,4.969-7.477,6.789l9.615,9.518
			c0.503-1.133,0.993-2.563,1.467-4.293c0.475-1.729,0.769-3.244,0.881-4.548l10.588,1.366c-0.115,1.084-0.313,2.266-0.599,3.547
			s-0.643,2.577-1.07,3.887c-0.428,1.311-0.913,2.621-1.454,3.932s-1.127,2.507-1.754,3.589c1.822,2.048,3.604,4.28,5.342,6.698
			c1.737,2.417,3.234,4.85,4.488,7.295h-13.02c-0.475-0.75-1.111-1.682-1.907-2.791c-0.796-1.11-1.593-2.065-2.388-2.863
			c-2.279,1.828-4.927,3.354-7.945,4.582c-3.019,1.227-6.408,1.841-10.167,1.841c-3.987,0-7.319-0.497-9.996-1.493
			c-2.676-0.995-4.827-2.275-6.45-3.838c-1.624-1.564-2.778-3.328-3.461-5.291C593.148,657.469,592.807,655.521,592.807,653.586z
			 M604.676,652.309c0,0.852,0.171,1.732,0.514,2.641c0.341,0.909,0.898,1.747,1.669,2.513c0.77,0.767,1.754,1.392,2.953,1.874
			c1.198,0.484,2.654,0.725,4.367,0.725c2.396,0,4.494-0.316,6.292-0.952c1.797-0.636,3.295-1.472,4.494-2.511l-13.754-13.661
			c-0.792,0.397-1.57,0.88-2.333,1.448s-1.457,1.236-2.079,2.002c-0.624,0.768-1.133,1.633-1.528,2.6
			C604.873,649.951,604.676,651.059,604.676,652.309z M621.241,622.84c0-1.311-0.427-2.48-1.281-3.508
			c-0.854-1.025-2.277-1.539-4.27-1.539c-1.822,0-3.231,0.555-4.227,1.665c-0.997,1.11-1.495,2.548-1.495,4.312
			c0,1.481,0.427,2.918,1.281,4.312c0.854,1.396,1.955,2.728,3.302,3.998c1.83-1.026,3.401-2.252,4.717-3.679
			C620.583,626.977,621.241,625.122,621.241,622.84z"/>
		<path fill="#FFFFFF" d="M672.217,622.404c1.65-0.684,3.373-1.465,5.166-2.349c1.793-0.882,3.544-1.849,5.252-2.903
			c1.707-1.053,3.344-2.162,4.91-3.33c1.564-1.166,2.974-2.404,4.227-3.715h8.881v59.176h-12.724v-42.609
			c-1.708,1.139-3.616,2.178-5.722,3.117c-2.105,0.938-4.155,1.75-6.147,2.434L672.217,622.404z"/>
		<path fill="#FFFFFF" d="M737.625,631.541c3.7,0,6.845,0.499,9.436,1.494c2.59,0.996,4.71,2.348,6.361,4.057
			c1.65,1.707,2.846,3.701,3.587,5.977c0.739,2.277,1.11,4.697,1.11,7.258c0,2.277-0.414,4.611-1.238,7.002
			c-0.826,2.392-2.079,4.556-3.758,6.49c-1.68,1.936-3.814,3.53-6.404,4.781c-2.59,1.252-5.65,1.879-9.179,1.879
			c-7.116,0-12.524-2.248-16.224-6.746c-3.701-4.496-5.551-10.701-5.551-18.615c0-5.691,0.882-10.729,2.646-15.113
			c1.764-4.383,4.283-8.069,7.558-11.059c3.272-2.988,7.229-5.264,11.869-6.83c4.639-1.566,9.862-2.377,15.669-2.434
			c0.113,1.765,0.227,3.486,0.342,5.166c0.113,1.68,0.227,3.43,0.342,5.251c-2.904,0.058-5.623,0.328-8.155,0.812
			c-2.534,0.484-4.839,1.238-6.917,2.262c-2.078,1.025-3.885,2.35-5.422,3.971c-1.537,1.623-2.732,3.602-3.586,5.936
			c1.251-0.568,2.531-0.968,3.842-1.195C735.262,631.656,736.486,631.541,737.625,631.541z M736.003,641.446
			c-1.253,0-2.591,0.114-4.014,0.341c-1.423,0.229-2.534,0.542-3.33,0.939c0,0.229-0.015,0.57-0.042,1.025
			c-0.029,0.456-0.043,0.854-0.043,1.195c0,2.049,0.141,3.984,0.427,5.807c0.284,1.822,0.769,3.415,1.452,4.781
			c0.683,1.367,1.592,2.434,2.732,3.202c1.138,0.769,2.561,1.153,4.27,1.153c1.422,0,2.632-0.299,3.629-0.896
			c0.994-0.598,1.82-1.352,2.477-2.264c0.652-0.91,1.137-1.921,1.451-3.031c0.312-1.109,0.469-2.178,0.469-3.201
			c0-2.904-0.725-5.137-2.177-6.703C741.852,642.229,739.418,641.446,736.003,641.446z"/>
		<path fill="#FFFFFF" d="M784.161,610.107h13.321v59.176h-13.321V610.107z"/>
		<path fill="#FFFFFF" d="M865.367,639.652c0,5.068-0.756,9.521-2.264,13.364s-3.572,7.06-6.19,9.649
			c-2.619,2.59-5.735,4.54-9.351,5.849c-3.615,1.31-7.5,1.964-11.655,1.964c-4.042,0-7.856-0.654-11.442-1.964
			c-3.586-1.309-6.718-3.259-9.393-5.849c-2.677-2.59-4.782-5.807-6.318-9.649c-1.537-3.843-2.307-8.296-2.307-13.364
			c0-5.065,0.797-9.521,2.392-13.363c1.593-3.842,3.742-7.072,6.446-9.691c2.703-2.617,5.835-4.582,9.394-5.893
			c3.557-1.309,7.301-1.963,11.229-1.963c4.042,0,7.856,0.654,11.442,1.963c3.586,1.311,6.717,3.275,9.393,5.893
			c2.676,2.619,4.782,5.85,6.319,9.691C864.598,630.132,865.367,634.587,865.367,639.652z M820.195,639.652
			c0,2.904,0.355,5.523,1.067,7.856c0.712,2.335,1.735,4.341,3.074,6.021c1.337,1.68,2.974,2.975,4.91,3.885
			c1.935,0.911,4.155,1.366,6.66,1.366c2.446,0,4.653-0.455,6.618-1.366c1.963-0.91,3.613-2.205,4.952-3.885
			c1.337-1.68,2.362-3.686,3.074-6.021c0.711-2.333,1.067-4.952,1.067-7.856c0-2.902-0.356-5.535-1.067-7.898
			c-0.712-2.361-1.737-4.383-3.074-6.062c-1.339-1.678-2.989-2.974-4.952-3.885c-1.965-0.91-4.172-1.367-6.618-1.367
			c-2.505,0-4.726,0.471-6.66,1.41c-1.937,0.939-3.573,2.249-4.91,3.928c-1.339,1.68-2.362,3.701-3.074,6.062
			C820.551,634.203,820.195,636.807,820.195,639.652z"/>
		<path fill="#FFFFFF" d="M892.162,634.379c2.395-4.031,4.673-8.062,6.84-12.092c2.165-4.031,4.16-8.092,5.984-12.18h14.688
			c-3.244,6.377-6.604,12.553-10.076,18.53s-7.145,11.983-11.016,18.017v22.629h-13.32v-22.457
			c-3.871-6.033-7.557-12.068-11.058-18.104c-3.501-6.033-6.874-12.238-10.119-18.615h15.456c1.818,4.088,3.779,8.148,5.884,12.18
			C887.527,626.317,889.774,630.348,892.162,634.379z"/>
		<path fill="#FFFFFF" d="M964.504,669.283c-3.814-6.773-7.941-13.463-12.383-20.066c-4.439-6.604-9.166-12.837-14.174-18.701
			v38.768h-13.15v-59.176h10.845c1.878,1.879,3.956,4.185,6.233,6.917c2.276,2.732,4.596,5.65,6.959,8.753
			c2.361,3.104,4.71,6.318,7.045,9.648c2.334,3.33,4.525,6.533,6.575,9.606v-34.925h13.235v59.176H964.504z"/>
		<path fill="#FFFFFF" d="M987.217,610.107h13.321v59.176h-13.321V610.107z"/>
		<path fill="#FFFFFF" d="M1068.422,639.652c0,5.068-0.755,9.521-2.263,13.364c-1.509,3.843-3.573,7.06-6.19,9.649
			c-2.619,2.59-5.736,4.54-9.351,5.849c-3.615,1.31-7.501,1.964-11.655,1.964c-4.043,0-7.856-0.654-11.442-1.964
			c-3.587-1.309-6.718-3.259-9.394-5.849s-4.781-5.807-6.318-9.649s-2.306-8.296-2.306-13.364c0-5.065,0.797-9.521,2.391-13.363
			c1.594-3.842,3.743-7.072,6.447-9.691c2.703-2.617,5.835-4.582,9.393-5.893c3.558-1.309,7.301-1.963,11.229-1.963
			c4.041,0,7.855,0.654,11.441,1.963c3.587,1.311,6.717,3.275,9.394,5.893c2.675,2.619,4.781,5.85,6.318,9.691
			C1067.653,630.132,1068.422,634.587,1068.422,639.652z M1023.251,639.652c0,2.904,0.354,5.523,1.067,7.856
			c0.711,2.335,1.735,4.341,3.074,6.021c1.336,1.68,2.974,2.975,4.909,3.885c1.935,0.911,4.155,1.366,6.661,1.366
			c2.446,0,4.653-0.455,6.617-1.366c1.964-0.91,3.614-2.205,4.953-3.885c1.337-1.68,2.361-3.686,3.073-6.021
			c0.712-2.333,1.067-4.952,1.067-7.856c0-2.902-0.355-5.535-1.067-7.898c-0.712-2.361-1.736-4.383-3.073-6.062
			c-1.339-1.678-2.989-2.974-4.953-3.885c-1.964-0.91-4.171-1.367-6.617-1.367c-2.506,0-4.727,0.471-6.661,1.41
			c-1.936,0.939-3.573,2.249-4.909,3.928c-1.339,1.68-2.363,3.701-3.074,6.062C1023.605,634.203,1023.251,636.807,1023.251,639.652z
			"/>
		<path fill="#FFFFFF" d="M1095.218,634.379c2.394-4.031,4.673-8.062,6.84-12.092c2.165-4.031,4.16-8.092,5.985-12.18h14.687
			c-3.244,6.377-6.604,12.553-10.076,18.53c-3.473,5.978-7.145,11.983-11.015,18.017v22.629h-13.321v-22.457
			c-3.872-6.033-7.557-12.068-11.058-18.104c-3.501-6.033-6.874-12.238-10.119-18.615h15.456c1.818,4.088,3.779,8.148,5.884,12.18
			C1090.583,626.317,1092.83,630.348,1095.218,634.379z"/>
	</g>
	<g>
		<path fill="#343434" d="M652.868,434.482c0,2.767-0.547,5.422-1.638,7.966c-1.091,2.549-2.512,5.006-4.256,7.366
			c-1.746,2.366-3.711,4.638-5.894,6.823c-2.183,2.18-4.329,4.255-6.439,6.22c-1.091,1.019-2.274,2.164-3.546,3.437
			c-1.273,1.274-2.493,2.565-3.656,3.875c-1.164,1.309-2.201,2.528-3.11,3.654c-0.91,1.129-1.474,2.058-1.69,2.783h32.521v13.642
			h-50.418c-0.147-0.801-0.219-1.816-0.219-3.055s0-2.109,0-2.62c0-3.493,0.562-6.692,1.692-9.604c1.127-2.908,2.6-5.618,4.419-8.13
			c1.818-2.508,3.874-4.855,6.165-7.036c2.292-2.185,4.566-4.366,6.82-6.551c1.746-1.673,3.384-3.256,4.912-4.745
			c1.527-1.49,2.873-2.948,4.037-4.366c1.163-1.418,2.073-2.838,2.729-4.256s0.982-2.854,0.982-4.312c0-3.2-0.911-5.457-2.729-6.765
			c-1.818-1.311-4.075-1.964-6.766-1.964c-1.965,0-3.803,0.309-5.511,0.926c-1.711,0.618-3.274,1.348-4.692,2.185
			c-1.419,0.835-2.639,1.673-3.656,2.508c-1.021,0.839-1.784,1.511-2.292,2.02l-8.077-11.35c3.201-2.981,6.932-5.438,11.188-7.367
			c4.256-1.926,8.82-2.891,13.695-2.891c4.437,0,8.257,0.51,11.459,1.527c3.201,1.021,5.838,2.456,7.911,4.312
			c2.075,1.855,3.602,4.11,4.583,6.764C652.376,428.137,652.868,431.138,652.868,434.482z"/>
		<path fill="#343434" d="M716.271,452.271c0,12.734-2.419,22.499-7.257,29.302c-4.839,6.806-11.513,10.204-20.024,10.204
			c-8.513,0-15.189-3.398-20.026-10.204c-4.839-6.803-7.257-16.567-7.257-29.302c0-6.329,0.636-11.932,1.91-16.805
			c1.271-4.875,3.109-8.986,5.51-12.333c2.401-3.347,5.274-5.893,8.622-7.64c3.346-1.745,7.094-2.618,11.241-2.618
			c8.512,0,15.186,3.401,20.024,10.204C713.852,429.882,716.271,439.612,716.271,452.271z M699.684,452.271
			c0-3.782-0.183-7.22-0.545-10.312c-0.365-3.093-0.947-5.766-1.747-8.022c-0.802-2.255-1.893-4-3.273-5.238
			c-1.384-1.235-3.094-1.854-5.129-1.854c-2.039,0-3.73,0.618-5.075,1.854c-1.347,1.238-2.439,2.983-3.274,5.238
			c-0.837,2.257-1.438,4.93-1.801,8.022c-0.363,3.092-0.545,6.529-0.545,10.312c0,3.784,0.182,7.239,0.545,10.368
			s0.964,5.82,1.801,8.074c0.835,2.257,1.928,4.004,3.274,5.239c1.345,1.239,3.036,1.855,5.075,1.855
			c2.035,0,3.745-0.616,5.129-1.855c1.381-1.235,2.472-2.982,3.273-5.239c0.8-2.254,1.382-4.945,1.747-8.074
			C699.501,459.51,699.684,456.055,699.684,452.271z"/>
		<path fill="#343434" d="M724.892,430.336c2.108-0.874,4.311-1.871,6.603-3s4.529-2.364,6.712-3.712
			c2.182-1.346,4.272-2.764,6.275-4.257c2-1.49,3.8-3.073,5.401-4.747h11.35v75.628h-16.26v-54.455
			c-2.184,1.456-4.622,2.781-7.312,3.981c-2.692,1.2-5.311,2.239-7.856,3.11L724.892,430.336z"/>
		<path fill="#343434" d="M801.393,491.887c-1.966,0-4.038-0.13-6.222-0.382c-2.181-0.257-4.293-0.603-6.329-1.038
			c-2.037-0.438-3.893-0.909-5.565-1.418c-1.675-0.511-2.984-0.985-3.929-1.418l3.165-13.533c1.891,0.802,4.312,1.654,7.257,2.563
			c2.947,0.912,6.603,1.363,10.969,1.363c5.02,0,8.692-0.943,11.021-2.836c2.327-1.892,3.492-4.438,3.492-7.641
			c0-1.962-0.42-3.617-1.255-4.965c-0.837-1.346-1.983-2.436-3.438-3.272c-1.456-0.837-3.183-1.42-5.183-1.748
			c-2.002-0.326-4.131-0.488-6.384-0.488h-6.331v-13.099h7.203c1.6,0,3.147-0.145,4.639-0.434c1.489-0.293,2.817-0.782,3.983-1.476
			c1.162-0.69,2.09-1.636,2.781-2.836c0.69-1.201,1.038-2.712,1.038-4.531c0-1.38-0.292-2.58-0.874-3.599
			c-0.583-1.019-1.327-1.855-2.236-2.513c-0.911-0.653-1.965-1.146-3.165-1.472c-1.2-0.327-2.42-0.492-3.656-0.492
			c-3.129,0-6.021,0.475-8.676,1.42c-2.656,0.947-5.074,2.11-7.257,3.493l-5.783-11.897c1.162-0.726,2.525-1.49,4.091-2.291
			c1.564-0.8,3.292-1.528,5.186-2.184c1.891-0.652,3.909-1.199,6.057-1.637c2.144-0.436,4.419-0.653,6.82-0.653
			c4.437,0,8.274,0.526,11.512,1.58c3.236,1.054,5.911,2.544,8.022,4.468c2.108,1.925,3.674,4.177,4.692,6.756
			c1.018,2.579,1.528,5.395,1.528,8.444c0,2.979-0.838,5.866-2.51,8.664c-1.676,2.796-3.93,4.92-6.767,6.374
			c3.928,1.602,6.965,3.988,9.111,7.158c2.146,3.168,3.221,6.975,3.221,11.419c0,3.496-0.582,6.72-1.747,9.667
			c-1.164,2.951-2.983,5.503-5.456,7.651c-2.474,2.146-5.621,3.825-9.44,5.025C811.16,491.282,806.631,491.887,801.393,491.887z"/>
	</g>
</g>
</svg>
